<?xml version="1.0" encoding="utf-8"?>
<!-- Generator: Adobe Illustrator 25.3.1, SVG Export Plug-In . SVG Version: 6.00 Build 0)  -->
<svg version="1.1" id="Layer_1" xmlns="http://www.w3.org/2000/svg" xmlns:xlink="http://www.w3.org/1999/xlink" x="0px" y="0px"
	 width="64.4px" height="19.4px" viewBox="0 0 64.4 19.4" style="enable-background:new 0 0 64.4 19.4;" xml:space="preserve">
<style type="text/css">
	.st0{display:none;}
	.st1{display:inline;}
	.st2{fill-rule:evenodd;clip-rule:evenodd;fill:#FAB81B;}
</style>
<g class="st0">
	<g class="st1">
		<path class="st2" d="M55.3,7.4C55.3,7.4,55.3,7.2,55.3,7.4c-1.3,0.1-2.6,0-4,0v0.2H40c-1,0-2,0-3.1-0.1c-0.4,0-0.9-0.1-1.3-0.1
			c-0.5,0-0.4-0.2-0.6-0.5c-0.2-0.4-0.7-0.2-1.1-0.4c0,0-0.1,0-0.1-0.1H34c0-0.3,0-0.3-0.2-0.4s-0.3,0.2-0.3,0.4
			c-0.4,0-1.2,0.1-1.5-0.1c-0.1-0.2-0.2-0.3-0.3-0.5c-0.1-0.1-0.2,0-0.3-0.1c-1.1,0-2.6,0-4-0.2c0-0.1,0-0.1,0.1-0.2
			c0-0.1,0-0.2-0.1-0.3c-0.2-0.1-0.6-0.1-0.9-0.2c-0.1,0.1-0.1,0.2-0.1,0.4h-0.1v0.2h-0.1V4.9h-0.5c0,0.3,0,0.4-0.1,0.6
			c-0.2,0-0.3,0-0.4-0.2h-0.1v0.2c-1,0-2.2,0-2.6-0.1v0.3H22c0-0.1,0-0.1,0.1-0.2c0-0.2,0-0.3-0.1-0.4c-0.3,0-1.1,0.1-1.3,0
			c-0.1,0-0.2,0-0.3,0.1v0.1c0.1,0,0,0,0.1-0.1h0.2c-0.1,0.2-0.7,0.2-0.9,0.1c-0.9,0-1.7-0.1-1.8,0.7h-0.5c0-0.2-0.1-0.6-0.2-0.8
			v0.1c-0.2,0.1-0.2,0.6-0.2,0.9c-0.4,0-1.8,0.1-2.4,0.2c-0.3,0-0.8,0.2-1.1,0.6c-0.1,0-0.2,0-0.3,0c-0.1-0.4-0.1-1.2-0.1-1.7V4.8
			h-0.1C13.1,5.6,13,6.3,13,7c-0.1,0-0.3,0-0.4,0c0,0.6,0,1.7-0.2,2l0,0c1.4,0.1,2.7,0.4,4.2,0.4V10c-0.3,0-0.3,0.1-0.6-0.1
			c0,0-0.5,0.2-0.7,0c-0.6,0-0.5,0.2-0.9,0.3V9.9c-0.5,0-2-0.2-2.1-0.1h-0.7c0,0,0.1-0.1,0.2-0.1v0c-0.5,0-0.9-0.1-1.4,0
			C10.2,9.8,10,9.8,9.6,9.9c-0.4,0-1.2-0.1-1.4,0.1c0,0,0.1-0.1,0,0.1c-0.1-0.1,0,0-0.1-0.1c-0.3,0-0.8,0.3-1,0.2l0-0.2
			c-0.2-0.1-1.3,0-1.3,0l-0.1,0.2c-0.3,0.2-0.6,0-0.9,0.3h0c0-0.1,0,0,0.1-0.1v-0.2c-0.1,0-0.1,0.1-0.2,0c-0.6,0.1-0.8,0.5-1.2,0.7
			C3.4,11,3.3,11,3.2,11c-0.3,0.2-0.5,0.5-0.7,0.6C2.3,11.8,2,11.9,1.8,12c-0.1,0.1-0.1,0.3-0.2,0.4v0.1c0.1,0,0.2,0,0.3-0.1H2
			c-0.1,0.1-0.3,0.3-0.5,0.4c0,0.2,0,0.2,0.2,0.3c0,0.1,0,0.2-0.1,0.3c-0.2,0.1-0.4-0.2-0.7,0c-0.3,0.1-0.4,0.5-0.2,0.7
			c0.1,0.3,0.7,0.5,1.1,0.6c0,0.3-0.1,0.7,0.1,0.8c0.1,0,0,0.1,0.1,0c0.4,0,0.3-0.1,0.4-0.5c0.2,0.1,0.1,0.2,0.3,0.4v0.1H2.4v0.2
			H2.2v0.2c-0.3-0.1-0.5-0.2-0.9,0c-0.1,0.1-0.1,0.2-0.1,0.4c0,0.4,0.1,0.4,0.3,0.6c0.3,0,0.5-0.1,0.6-0.4h0.1c0,0.1,0,0.1,0.1,0.3
			c0.3,0.1,0.4,0.2,0.6-0.1H3c0,0.2,0,0.1-0.1,0.3c-0.3,0-0.4-0.1-0.6-0.2v0.1H2.1c0,0.1,0,0-0.1,0.1c0.2,0.2,0.5,0.4,0.9,0.4
			C3,17.3,3.1,17.2,3.2,17c0.4,0.1,0.7,0.4,1,0.6C5,17.4,5.5,17.7,6.1,18s1.1,0.6,2.1,0.8h26.9c0.8,0,2.4,0,3.1-0.3
			c1.5-0.5,2.7-1.2,4.1-2c0.8-0.5,1.2-0.8,1.5-1.9c0-0.2,0.1-0.5-0.1-0.7V14c0.1,0,0.1,0,0.2,0.1c0.1,0.1,0,0.2,0.1,0.4
			c0,0.1,0.2,0.2,0.2,0.3c0.3,0.1,0.5,0,0.8,0.1c0.1-0.2,0-0.3,0.3-0.4c0-0.1,0-0.1-0.1-0.2c-0.1,0,0,0-0.2,0
			c0.2-0.8-0.4-1.9-0.9-2.2c0-0.5,0.2-1.1,0.5-1.4c-0.1-0.1-0.1-0.1-0.2-0.2c-0.2,0.2-0.3,0.6-0.4,0.9h0v0.2c-0.1,0-0.2,0.1-0.3,0.1
			h-0.1c0-0.3,0-0.5,0.1-0.7h0.4v-0.2c-0.5,0-0.8,0-1.1,0.2c0,0.2-0.1,0.2-0.1,0.4c-0.3,0-0.2,0.1-0.5,0.1c0-0.1,0-0.1-0.1-0.2
			c0-0.3-0.1-0.3-0.3-0.5c-0.3,0-0.4,0.1-0.6,0.3c-0.1-0.2-0.1-0.3-0.1-0.6c-0.1,0-0.2,0-0.3,0.1V11c-0.6,0-0.8-0.2-1.2-0.3
			s-0.8,0.1-1,0c-0.4-0.1-1-0.4-1.4-0.6V9.6h-0.2v0.6h-0.3c0-0.3,0-0.3-0.1-0.6h-0.2v0.2c-0.1-0.1-0.1,0-0.1-0.2
			c-0.3,0-0.5,0.3-0.8,0.2c-0.1,0,0-0.1-0.2-0.2v0.2c-0.1,0-0.1,0-0.3-0.1c0-0.1,0-0.1,0.1-0.2h-0.1c0,0-0.6,0.3-1,0.3V9.4
			c0,0.1-0.1,0.2-0.1,0.3c-0.3,0-0.7-0.1-0.9-0.1c-0.1-0.1-0.1-0.2-0.2-0.3h-0.1c0.4-0.3,0.8-0.2,1.3-0.4c0.2-0.1,0.4-0.3,0.6-0.4
			l0,0c0.5,0,1,0,1.4-0.1c4.8,0,9.7,0,14.5-0.1v0.3c1.2-0.1,2.9-0.1,4.1,0V8.5c0.7,0,1.5,0.1,2.2,0.1V7.4
			C56.8,7.4,56.1,7.4,55.3,7.4z M1.4,14c-0.1,0-0.2,0-0.3-0.1H0.9c0-0.1,0,0-0.1-0.1c0-0.3,0.1-0.3,0.2-0.4c0.1,0,0.2,0,0.3,0.1h0.1
			c0,0.1,0,0,0.1,0.1C1.5,13.9,1.4,13.9,1.4,14z M1.8,16.1L1.8,16.1L1.8,16.1c-0.2,0-0.2,0-0.3,0v-0.3c0.1,0,0.2,0,0.3-0.1V16.1z
			 M3.2,11.7L3.2,11.7c0-0.1,0.1-0.2,0.2-0.3h0.1C3.4,11.5,3.3,11.6,3.2,11.7z M4.3,10.8c-0.1,0-0.1,0.1-0.1-0.1L4.3,10.8L4.3,10.8z
			 M20.9,5.5h-0.1V5.4L20.9,5.5L20.9,5.5z M21.5,5.4L21.5,5.4L21.5,5.4L21,5.5V5.4H21.5L21.5,5.4z M21.5,5.5L21.5,5.5l0.2-0.1
			C21.6,5.5,21.7,5.5,21.5,5.5z M21.9,5.6c0-0.1,0-0.1-0.1-0.2H22C22,5.5,22,5.4,21.9,5.6C21.9,5.6,22,5.5,21.9,5.6z M44.5,12.8
			L44.5,12.8c0.2,0.5,0.3,1,0.3,1.6c-0.2,0-0.1,0-0.3-0.1c0-0.5,0.1-0.7-0.2-1C44.4,13.1,44.5,13.1,44.5,12.8z M41.8,11.1
			c0.1,0,0.1-0.1,0.3,0h0.1l0.1,0.3h-0.5C41.7,11.3,41.7,11.2,41.8,11.1z M40.1,11.1c-0.1,0.1-0.3,0-0.5-0.1
			C39.8,11,39.9,11,40.1,11.1z M33.8,6.4h-0.2V6.3L33.8,6.4L33.8,6.4z"/>
	</g>
</g>
<g class="st0">
	<g class="st1">
		<path class="st2" d="M57.2,7.4h-0.7h-1.9l-2.9-0.1v0.2h-9.5l-3.1-0.1c0,0-2.8-0.1-4.3-0.1V6.9c1.2,0,3.6,0,3.6,0L39.7,7h0.1
			l-0.1-0.4l-1.9,0.1c0,0-3.1-0.1-4.7-0.1c0-0.2,0-0.2-0.1-0.4h-2.9c-0.1,0-0.3-0.2-0.5-0.3s-0.5,0-0.6-0.1s0,0-0.1-0.2h-0.2
			c0-0.4-0.1-1.2,0.2-1.3c-0.2-0.5-0.4-1-0.7-1.5c-0.1-0.1-0.2,0-0.2,0c0-0.1-0.1-0.4-0.1-0.4l-0.8,0.4l-0.5,0.5l-0.1,2.1
			c0,0-0.2,0-0.3,0.1l0.1-0.2c-0.1-0.1,0,0-0.1-0.1c-0.3,0-0.8,0.2-1,0.1h-0.1v0c0,0-0.1,0-0.1-0.1h-0.7v0.1H25v0.2
			c-0.9,0-1.7,0-2.8,0v0.4C22,5.9,21,6.1,20.7,6c-0.1-0.1,0-0.1-0.3-0.2c0-0.3,0-0.6-0.1-0.8V4.8c-0.1,0,0,0-0.1,0.1
			C20,5,20.1,5.1,20,5.3c-0.1,0.2-0.1,0-0.2,0.2c-0.1,0.1,0,0-0.1,0.2c-0.3,0-0.5,0-0.8-0.1c0,0,0,0.1-0.1,0.1c0,0-0.1-0.1-0.2-0.1
			c0,0-0.1,0.1-0.2,0.1s-0.3-0.1-0.5-0.1v0.2c-0.1-0.1-0.2-0.1-0.5-0.1c0,0.1,0,0.1-0.1,0.2c-0.1,0.1,0,0-0.1,0.1
			c-0.1-0.1,0,0-0.1-0.1V5.5h-0.2v0.4h-1.2V5.7c-0.1-0.1,0,0-0.1-0.1h-0.5v0.2h-0.4V5.6c-0.4,0-0.7,0-0.9,0.1c-0.2,0-0.5-0.2-0.7,0
			H13v0.2c-0.5,0-1.7,0-1.8,0c-0.2,0-0.3-0.1-0.4-0.2c-0.2,0-0.4,0.1-0.5,0.2h-3C6.9,5.9,6.2,5.8,5.9,6v2.2c0.3,0.3,0.3,0.6,0.9,0.7
			h2.7C9.7,9,9.9,9.3,10.1,9.4H12c0.1,0,0.4,0.3,0.4,0.4h0.7c1.1,0,2.1,0,3.1,0c0.3,0,1.3,0.1,1.3,0.1s0.4,0.1,0.6,0.2V10h-1.8V9.9
			H16c-0.9,0-1.9,0.1-2.7-0.1c-0.1,0-0.2,0.1-0.2,0.1H12c-1.2,0-2.4,0-3.4,0c-1.1,0-2.3-0.2-3,0C5.4,9.9,5.1,10,5,9.8H4.9l0,0H5
			c-0.1-0.2-0.1,0-0.2-0.3C4.4,9.5,4.3,9.7,4,9.8L3.9,9.9C3.8,9.8,3.6,9.6,3.4,9.8c-0.2,0-0.1,0.3-0.2,0.5c-0.1,0-0.3,0.1-0.4,0.1
			c-0.1-0.1,0,0,0-0.2c-0.2,0-0.5,0-0.8,0c0,1.3,0.1,1.2-0.8,1.7v0.5c-0.1,0-0.1,0-0.2-0.1l0,0c0,0.2-0.1,0.7,0.1,0.8
			c0.1,0.1,0,0,0.2,0c-0.1,0.1,0,0-0.1,0.1c0,0.1-0.4,0.2-0.6,0.3c-0.1,0.2-0.1,0.3,0.1,0.5c0,0.4,0,0.9,0.1,1.1
			c0.2,0,0.1,0,0.2-0.1h0v0.6h0.2c0,0.5,0.5,1.2,0.8,1.4h0.1c0.1,0.1,0.2,0.2,0.4,0.2c0.1,0,0.2,0,0.3,0.1c0,0.1,0,0.1,0.1,0.2
			c0.1,0,0.2-0.1,0.2-0.1c0.1,0,0.4,0.1,0.5,0.1c0.6,0.2,1.7,0.7,2.3,0.9c0.2,0.1,0.7,0.2,0.9,0.2c0.2,0.1,0.7,0.2,0.9,0.3
			c0.2,0,0.5,0.1,0.6,0.1c0.7,0.1,2,0.1,2.9,0.1c7.3,0,21.9,0,21.9,0s0.6-0.1,0.8-0.1c0.6-0.1,1.7-0.4,2.2-0.5
			c0.3-0.1,0.9-0.3,1.2-0.4c0.2-0.1,0.7-0.3,1-0.3c0.2-0.1,0.6-0.2,0.8-0.3s0.5-0.2,0.6-0.3c0.6-0.4,0.6-0.8,0.8-1.4
			c0.1-0.5-0.1-1.4-0.3-1.6C40.1,14.1,40,14,39.9,14c0-0.2,0.1-0.4,0.1-0.7c-0.1-0.1-0.2-0.1-0.2-0.2c0-0.2,0.1-0.2,0.2-0.3v-0.4
			h0.3c0-0.1,0-0.2-0.1-0.2c-0.1-0.1-0.8,0-0.8,0L39,11.9l-0.4,0.6c0,0-1.8-0.6-2.9-1.2c-0.2-0.1-0.4-0.2-0.6-0.4c0,0,0-0.1-0.1-0.1
			h-0.2c-0.2-0.1-0.4-0.2-0.5-0.3h-0.1c-0.1-0.1-0.1-0.3-0.2-0.4c-0.2,0-0.3,0.1-0.6-0.2h-3.1c0-0.1,0.1-0.2,0.1-0.3
			c0.1,0,0.2,0,0.4-0.1v0.2c0.6,0,2-0.2,2-0.2l0.7-0.1c0,0,0.9-0.2,1.3-0.4V8.7c1.6,0,4.6-0.1,4.6-0.1l3.2-0.1h9.1v0.2h3.7h1.4h2.8
			V7.3h-2.4V7.4z M6.6,6.1H7v0.2c-0.1,0-0.2,0-0.4,0.1c-0.1-0.1,0,0-0.1-0.1L6.6,6.1L6.6,6.1z M7.5,8.6C7,8.6,7,8.4,6.7,8.3
			C6.6,7.8,6.6,7.2,6.6,6.6H7C7,7.4,6.9,8.3,7.5,8.6L7.5,8.6z M9,7.3v0.6H8.8V8l0,0c0,0,0,0.1,0.2,0.1v0.5c-0.5,0-1.1,0.1-1.4-0.2
			C7.1,8.3,7.3,7.2,7.3,6.6H9C9,7,9,7.1,8.8,7.3v0.1L9,7.3L9,7.3z M9,6.3H7.3V6.1H9V6.3z M9.6,8.6H9.2V8.3C9.4,8.4,9.4,8.5,9.6,8.6
			L9.6,8.6z M9.8,7.3C9.7,7.4,9.6,7.5,9.5,7.5c0,0.2,0,0.2,0.2,0.3v0.1H9.2V7.3H9.8L9.8,7.3z M10.2,6.1C9.9,6.2,9.4,6.6,9.3,6.8H9.2
			V6.1H10.2L10.2,6.1z M1.1,14.7C1,14.5,1,14.2,1,14c0.1,0,0.2,0,0.2,0.1C1.2,14.4,1.1,14.3,1.1,14.7z M3,10.8L3,10.8l-0.1-0.2
			C2.9,10.6,3.1,10.7,3,10.8z M3.6,10L3.6,10c-0.1-0.1-0.1-0.1,0-0.2c0.1,0,0.1,0,0.2,0.1C3.7,10,3.7,10,3.6,10z M4.5,9.9
			c0,0,0.1,0.1,0.1,0.2C4.4,10.1,4.5,9.9,4.5,9.9z M20,5.8h-0.2c0-0.1,0-0.1-0.1-0.1l0,0L20,5.8L20,5.8z M26.6,5.7L26.6,5.7
			c-0.1,0,0,0-0.1-0.1L26.6,5.7C26.6,5.7,26.7,5.7,26.6,5.7z M58.9,8.5c-0.4,0-0.7-0.3-0.5-0.7c0-0.1,0.2-0.2,0.3-0.2
			c0.2,0,0.3,0,0.4,0.1c0.2,0.1,0.1,0.1,0.2,0.2C59.2,8.3,59.1,8.3,58.9,8.5z"/>
	</g>
</g>
<g class="st0">
	<g class="st1">
		<path class="st2" d="M63.5,6.6c-0.6,0-1.6-0.1-1.9,0.2c-0.2-0.1-0.1-0.1-0.3-0.1c0-0.1,0-0.1,0-0.2c-1.2,0-2.4,0-3.5,0
			c0,0.1,0,0.2,0,0.3c-7.5,0-15,0-22.5,0c0-0.1,0-0.1,0-0.2c-0.2-0.1-0.3-0.2-0.5-0.3c-0.2,0-0.5,0-0.7-0.1c0-0.1,0-0.1-0.1-0.2
			c-0.3-0.1-0.7,0.1-0.9,0.1C33.1,6,33.1,6,33,5.9C32.9,5.9,32.7,6,32.6,6c-0.1,0-0.3-0.3-0.4-0.3c-0.1,0-0.2,0-0.3,0
			c-0.1,0-0.3-0.2-0.4-0.2c-0.4,0-0.8,0-1.1-0.1c0,0,0-0.1-0.1-0.1c-0.1,0-0.3,0-0.4-0.1c-0.2-0.2,0.1-0.4,0-0.7
			c0-0.1-0.1-0.2-0.2-0.3c-0.5-0.1-0.7-0.1-1,0.3c-0.3,0-0.5-0.2-0.7-0.3c-0.2-0.1-0.3,0-0.5-0.1c-0.3-0.1-0.6-0.3-0.9-0.4
			c-0.4-0.2-0.9-0.2-1.3-0.3c-0.1,0-0.2,0-0.3,0L25,3.3c0,0,0-0.1,0-0.1c-0.3,0-0.5,0-0.8-0.1c0,0.1,0,0.1,0,0.2
			c-0.5,0-0.9,0.1-1.1,0.4c-0.3,0-0.5,0-0.8,0c0.1-0.1,0,0,0.1-0.1c0-0.7,0.1-0.5,0.3-0.8c0.1,0,0.2,0,0.3,0c0,0.1,0,0.3,0,0.4
			c0.1,0,0.2,0,0.3,0c0-0.5,0.1-0.4,0.3-0.6c0.4,0,0.9,0,1.3-0.1c0,0,0-0.1,0-0.1c0.3,0,0.7,0,1,0c0.9,0,1.9,0,2.7,0.1
			c0-0.1,0-0.2,0-0.3c-1.7,0-4.8,0.3-5.5-0.7c-0.2,0-0.4-0.1-0.4-0.1c0,0.1-0.1,0.1-0.1,0.2c-0.1,0-0.4-0.1-0.5-0.1
			c-0.3,0-0.6,0-0.9,0c-0.2-0.1,0-0.1-0.4-0.2c0.1-0.2,0.1-0.4,0.1-0.6c-0.2,0-0.5,0-0.7,0c0,0.2,0,0.4,0,0.6c0.1,0,0.1,0,0.2,0
			c-0.2,0.2-0.6,0.1-1,0.1c0-0.1,0-0.1,0-0.2c-0.1,0-0.2,0-0.3,0c0,0.1,0,0.1,0,0.2c-1.2,0-2.3,0.5-2.7,1.2c-0.2,0-0.3,0-0.4-0.2
			c0,0-0.1,0-0.1,0c0.1,0.2,0.2,0.2,0.3,0.3C16,2.9,16,3,16,3.1c0.1,0.2,0.3,0.3,0.3,0.5c0.1,0,0.3,0,0.4,0c0,0,0,0,0,0.1
			c-0.7,0-1.3,0-2,0c0-0.1,0.1-0.1,0.1-0.1c0-0.1,0-0.3,0-0.4c0,0-0.1,0-0.1-0.1c-0.1-0.3-0.1-4.5-0.1-6c-0.1,0.2-0.1,1.3-0.1,1.6
			c0,1.4,0,2.9,0,4.3c-0.8,0-1.6,0.2-2.1,0.4c-0.2,0-0.3,0-0.5,0.1c0,0,0,0.1,0,0.1l-0.1,0.1c-0.4,0.2-1.4-0.1-1.7-0.1
			c-0.4,0-0.7,0.1-1.1,0.1c0,0.6,0,1.5-0.3,1.8c0,0.4,0.2,0.4,0.4,0.6c0,0,0.1,0,0.1,0c0,0.1,0,0.3,0,0.4c0,0.1,0.2,0.4,0.3,0.4
			c1.3,0.9,3.6,0.8,5.3,1.3c0.4,0,0.8,0.1,1.1,0.1c0.2,0.1,0.5,0.2,0.6,0.4c0.2,0.2-0.1,0.2,0.3,0.4c0,0,0,0,0,0.1
			c-0.9,0-1.7,0-2.6,0c-0.3-0.1-0.4-0.3-0.6-0.4C12.1,8.9,10.5,8.9,8.9,9c0,0.1,0,0.2,0,0.3c0.8,0,1.5,0,2.3,0c0,0,0,0.1,0,0.1
			c-0.4-0.1-0.9,0.1-1.3,0c-0.5-0.1-1.1,0.1-1.7,0c-0.3,0-0.1-0.1-0.3-0.1c-0.3,0-0.6,0-0.9,0C6.6,9.4,6.9,9.5,6.4,9.5
			c0,0.1,0,0.1,0,0.2c-0.1,0-0.1-0.1-0.2,0c-0.1,0-0.2,0-0.3,0C6,9.6,6,9.5,6,9.5C5.7,9.3,5.3,9.4,4.8,9.4c0.1-0.1,0.1,0,0.2-0.1
			C4.9,9.3,4.9,9.3,4.7,9.3c0-0.1,0-0.1,0-0.2C4.5,9.2,4.6,9.2,4.6,9.4C4,9.7,3,9.5,2.3,9.7C1.9,9.8,1.7,9.6,1.5,9.8
			c0,0.1,0,0.1,0.1,0.2c0,0.1,0,0.1-0.1,0.1c-0.2,0.1-0.4-0.2-0.7-0.2c0,0.2,0.1,0.3,0.1,0.4c-0.1,0.1-0.3,0.3-0.2,0.5
			c0.2,0.3,0.4,0.6,0.6,0.9c0,0,0,0,0,0.1c0.1,0,0.2,0,0.3,0c0.2,0.2,0,0.5,0.1,0.8c0,0,0.1,0.1,0.1,0.1c0.1,0,0.3,0,0.4,0
			c0,0.5,0.1,1,0.3,1.3c0,0.1,0.2,0.2,0.3,0.3c0.1,0.3-0.3,0.3,0,0.6C3,15.3,3.3,15,3.5,15.5c-0.1,0-0.1-0.1-0.2-0.1
			c-0.2,0-0.1,0.1-0.3,0.1c0.2,0.3,0.6,0.3,0.7,0.7c0.1,0,0.1,0,0.2,0c0-0.1,0-0.1-0.1-0.2c0.1-0.1,0.3-0.2,0.4-0.3c0,0,0,0,0-0.1
			c0,0,0,0,0.1,0c0.3,0.5,3.3,2.8,3.8,3c0.5,0.2,1.4,0.3,2,0.3c1.1,0,2.3,0,3.4,0c4,0,7.9,0,11.9,0c1.7,0,3.5,0,5.2,0
			c0.8,0,1.8,0.1,2.5-0.1c0.9-0.3,4.5-2.1,5.5-3.3c0.2-0.2,0.6-0.9,0.6-0.9s0.2,0,0.3-0.1c0.1-0.1,0.1-0.1,0.2-0.2
			c0-0.1,0-0.1-0.1-0.2c-0.1-0.1-0.1,0-0.2-0.1c0-0.3,0-0.8,0-0.8l0.3-0.6l0.7,0.1c0,0,0.2-0.1,0.4-0.1c0-0.4-0.1-0.9-0.3-1.1
			c-0.4-0.6-1.2-0.8-2.2-0.8c0-0.4,0.1-0.3,0.2-0.4c0.1-0.2-0.2-0.3-0.2-0.6c-0.3,0.1-0.3,0.3-0.6,0.3c0,0.2,0,0.3,0,0.5
			c-0.4-0.1-0.9-0.1-1.4-0.1c0-0.3-0.1-0.4-0.3-0.6c-0.3-0.1-0.3-0.1-0.6-0.1c0-0.2,0-0.3-0.1-0.4c-0.1,0-0.2,0-0.3,0
			c0,0.2,0,0.4,0,0.6c-0.1,0-0.1,0-0.2,0c0-0.1,0-0.2,0-0.3c-0.3,0.1-0.2,0.2-0.6,0.2c0-0.1,0-0.1,0-0.2c-0.2-0.1-1.4-0.2-1.6-0.1
			c-0.3,0-0.4-0.1-0.4-0.4c-0.3,0-0.7,0-1-0.1c0-0.2,0.1-0.2,0.1-0.3c0.1,0,0.3-0.1,0.3-0.1c0.1,0,0.3,0,0.4,0.1c0,0,0-0.1,0-0.1
			c0.1,0,0.2,0,0.3,0c0,0,0.2-0.2,0.3-0.2c0.1,0,0.1,0.1,0.2,0.1c0,0,0.2-0.2,0.2-0.2c0.1,0,0.3,0,0.4,0c0,0,0.2-0.1,0.3-0.1
			c0,0,0,0.1,0.1,0.1c0.1,0,0-0.1,0.1-0.1c0,0,0,0,0.1,0c0,0,0.1,0.1,0.1,0.1c0,0,0-0.1,0.1-0.1c0.4-0.2,0.9,0,1.1-0.3
			c0.1-0.1,0-0.1,0.1-0.2c7.5,0,15,0,22.5,0c0,0.1,0,0.1,0,0.2c1.2,0,2.4,0,3.5,0c0-0.2,0-0.1,0.1-0.2c0.2-0.1,0.3,0.1,0.4,0.1
			c0.5,0,1,0,1.5,0C65.2,8,67,8,68.8,8c0-0.4,0-0.9,0-1.3C67,6.7,65.3,6.6,63.5,6.6z M9.3,5c0.1,0.1,0.1,0,0,0.1c0,0,0,0,0,0.1
			c0,0,0,0-0.1,0C9.2,5.1,9.2,5,9.3,5z M9.4,5.5c-0.1,0-0.2,0-0.3-0.1c0-0.1,0-0.1,0-0.2c0.2,0,0.1,0.1,0.3,0.1
			C9.4,5.5,9.4,5.5,9.4,5.5z M9.4,4.7c-0.1,0-0.1,0-0.2,0c0-0.3,0.1-0.5,0.1-0.9c0.1,0,0.2,0,0.3,0C9.5,4.1,9.5,4.4,9.4,4.7z
			 M9.9,4.3C9.8,4.4,9.7,4.4,9.6,4.5c0,0,0,0-0.1,0c0-0.3,0-0.5,0.1-0.8c0.1,0,0.2,0,0.3,0C9.9,4,9.9,4.2,9.9,4.3z M10.5,3.8
			c-0.1,0.1-0.2,0.1-0.3,0.3c0,0,0,0-0.1,0c0-0.1,0-0.2,0.1-0.3C10.3,3.8,10.4,3.8,10.5,3.8C10.5,3.8,10.5,3.8,10.5,3.8z M10.7,3.8
			c0.1,0,0.1,0,0.1,0.1C10.7,3.9,10.8,3.9,10.7,3.8z M11.1,3.8c0.1,0,0.2,0,0.3,0C11.3,3.9,11.2,3.9,11.1,3.8z M11.8,3.9
			C11.7,4,11.7,4,11.6,4.1c0,0,0,0-0.1,0c0-0.1,0-0.2,0.1-0.3C11.7,3.8,11.8,3.8,11.8,3.9C11.8,3.9,11.8,3.9,11.8,3.9z M1.1,10.8
			C1.1,10.9,1.1,10.9,1.1,10.8C1.1,10.9,1.1,10.9,1.1,10.8c-0.1-0.1-0.1,0-0.1-0.1c0-0.1,0-0.2,0.1-0.3c0.2,0.1,0.2,0.1,0.3,0.2
			C1.3,10.7,1.2,10.8,1.1,10.8z M2.6,10c-0.1,0-0.3,0-0.3,0.1c-0.2,0-0.4,0-0.6,0c0,0,0-0.1,0-0.1c0.2,0,0.6,0,0.7-0.1
			c0.1,0,0.1,0,0.2,0C2.6,9.9,2.6,9.9,2.6,10z M3.1,14.9C3.1,14.9,3.1,14.9,3.1,14.9C3,14.8,3,14.8,3,14.6c0.1,0,0.1,0.1,0.1,0.1
			C3.1,14.8,3.1,14.9,3.1,14.9z M3.6,9.8C3.6,9.8,3.5,9.8,3.6,9.8C3.5,9.9,3.5,9.9,3.6,9.8C3.5,9.9,3.4,9.9,3.4,9.9c0,0,0-0.1,0-0.1
			C3.5,9.8,3.5,9.8,3.6,9.8C3.6,9.8,3.6,9.8,3.6,9.8z M3.8,15.4C3.8,15.5,3.8,15.5,3.8,15.4c-0.2,0-0.2-0.2-0.2-0.3
			c0.1,0.1,0.2,0.1,0.3,0.2C3.9,15.4,3.9,15.4,3.8,15.4z M4.1,9.9C4,9.8,4,9.8,4,9.7c0.1,0,0.3,0,0.4,0C4.3,9.9,4.3,9.7,4.1,9.9z
			 M17.1,3.7c0.1,0,0.3,0,0.4,0C17.5,3.7,17.2,3.7,17.1,3.7z M19.3,1.4c-0.1,0-0.1,0-0.2,0c0,0,0-0.1,0-0.1c0.1,0,0.1,0,0.2,0
			C19.3,1.3,19.3,1.3,19.3,1.4z M29.6,4.9c-0.1,0-0.2,0-0.3-0.1c-0.1,0-0.1,0-0.2-0.1c0-0.2,0-0.3,0.1-0.4c0.1,0,0.3,0,0.4,0
			c0.1,0.1,0,0,0.1,0.1C29.6,4.7,29.6,4.8,29.6,4.9z M35.7,10.1c0.2,0.1,0.3,0.2,0.4,0.4c-0.1-0.1-0.3-0.1-0.4-0.3
			c-0.1,0-0.1,0-0.1-0.1C35.7,10.1,35.6,10.1,35.7,10.1z M67.7,7.7c-0.1,0-0.1,0-0.2,0c0-0.3,0-0.6,0-0.9c0.1,0,0.1,0,0.2,0
			C67.7,7.2,67.7,7.5,67.7,7.7z M68.1,7.7c-0.1,0-0.1,0-0.2,0c0-0.3,0-0.6,0-0.9c0.1,0,0.1,0,0.2,0C68.1,7.2,68.1,7.5,68.1,7.7z
			 M68.6,7.7c-0.1,0-0.1,0-0.2,0c0-0.3,0-0.6,0-0.9c0.1,0,0.1,0,0.2,0C68.6,7.2,68.6,7.5,68.6,7.7z"/>
	</g>
</g>
<g>
	<g>
		<path class="st2" d="M61.5,6.8L61.4,7h-1V6.7h-4.9V7c0,0-8.9,0-13.4-0.1c-1.3,0-7.4,0-8.4,0c0-0.2-0.1-0.2-0.2-0.4
			c-0.3,0-0.4-0.2-0.6,0c-0.2-0.1-0.1-0.2-0.2-0.4V6h-0.1c-0.2,0.1-0.2-0.1-0.2-0.1c-0.1,0-0.1,0-0.2,0.1l0.1-0.1
			c-0.1,0-0.2-0.2-0.2-0.2c-0.2-0.1-0.5,0.1-0.5,0.1c-0.2,0-0.6-0.3-0.9-0.3V4.8h-0.2v1.3c-0.2,0-0.4,0-0.5-0.1
			c-0.1,0-0.1,0-0.2-0.1c-0.1-0.5-0.4-0.9-0.4-1.5h-0.2V5c-0.1,0-0.2,0-0.2-0.1c-0.6,0-0.6-0.1-0.8-0.5c-0.3-0.1-0.6-0.1-0.7,0.2
			h-0.1V4c0.3,0,0.6,0,0.7-0.1c0-0.6,0-1,0-1.5h-0.5c0,1.4-0.3,0.9-0.9,1.5c-0.1,0.1-0.1,0.5-0.1,0.7c-0.1-0.1-0.1-0.5-0.1-0.7
			c-0.1,0.2-0.1,0.8,0.1,0.9v0.1c-0.3-0.1-0.4-0.3-0.6-0.4h-0.9L24.3,4c-0.1-0.1,0-0.2-0.1-0.2H24V3.7h-0.2
			c-0.4-0.2-0.5-0.2-0.5-0.7c-0.4,0.1-0.3,0.4-0.8,0.4V3.2c-0.2,0-0.2,0-0.4,0v0.2c-0.4,0-0.8,0-1.2,0.1c0-0.4-0.1-0.6-0.2-0.7V2.6
			h-0.1c0,0.2,0.1,0.2,0.1,0.4c-0.1,0.1-0.1,0.1-0.1,0.2h-0.1v0.2c-0.1,0.1-0.2,0-0.2,0.1C20.1,3.5,20,4.2,20,4.3
			c-0.1,0-0.2,0.2-0.2,0.2c-0.1,0-0.2-0.1-0.2-0.1c-0.2,0-0.5,0.1-0.5,0.2c-0.2,0,0-0.1-0.1-0.1c-0.1,0,0,0-0.1,0.1
			c-0.1,0-0.2-0.1-0.4-0.1v0.1c-0.1,0-0.1-0.2-0.3,0.1h-0.3C17.9,4.5,18,4.5,18,4.2h0.4c0.1-0.1,0.4-0.7,0.4-0.9
			c0.1-0.2-0.1-0.7-0.1-0.8h0.1c0.2-0.4-0.2-0.9,0.1-1.2C19,1.2,19,1.1,19,1c-0.1-0.1-0.1,0-0.2-0.1h-0.1v0.3
			c-0.2,0-0.4-0.1-0.7-0.1c0,0.1,0,0.2,0.1,0.2c0.1,0.1,0.4,0,0.5-0.1v0.8c-0.1,0-0.4-0.1-0.5-0.2c-0.5,0-0.2,0.2-0.7,0.2
			c0.1,0.1,0,0,0.1,0.1c-0.1,0.1,0,0.1-0.1,0.1v0.1c0.2,0,0.5,0.1,0.7,0c0.3,0.2,0.2,1.1,0,1.3v0.1c-0.2-0.1-0.1-0.3-0.2-0.5
			c0-0.6-0.1-0.4-0.2-0.7c-0.2,0-0.4,0.1-0.5,0c-0.2,0.1-0.1,0-0.1,0.2c-0.5,0.1-0.3,0.5-0.6,0.7h-0.2c-0.1,0.1-0.2,1-0.2,1.2
			c-0.5,0-0.9,0-1.4,0.1v0.1c-0.1,0.1-0.8,0.2-1,0.2c-0.4,0-1.1,0.1-1.2-0.2c-0.2,0.1-0.1,0-0.1,0.2H12c0-0.2,0.1-0.2,0.2-0.3H12
			c-0.1-0.1-0.1,0-0.3,0c0,0.1,0.1,0.1,0.1,0.1c-0.2,0.1,0,0.2-0.4,0.2c0.1,0.3,0.2,0.5-0.1,0.5C11.4,6,11.8,6,12,6.3
			C12,6.5,12,6.4,11.9,6.5v0.1c0.1,0,0.2,0,0.3,0.1v1.5h1c0.1,0,0.2,0.2,0.4,0.1c0.1,0-0.1-0.2,0.1-0.1c0,0,0.3,0.1,0.3,0.1
			c0,0.1,0.1,0.1,0.1,0.2h0.3c0.3,0.1,0.8,0.2,1.2,0.3h0.3c0.4,0.1,2.7,0.7,3.2,0.7v0.2c-0.9,0.2-2.1,0-2.9-0.2
			c-0.4,0-0.8-0.1-1.2-0.1L14.8,9c-0.3,0.1-0.9-0.1-1.2,0l-0.1,0.2l-0.9-0.1c-0.1,0-0.5,0.1-0.6,0.1v0.1c-0.2,0.1-1.4-0.1-1.8-0.1
			V9.1h-0.1V9c-0.3,0-0.4,0.3-0.7,0.3c-0.2,0-0.8-0.2-1.1-0.1C8.2,9.4,7.9,9.4,7.4,9.4c-0.2,0-0.4,0-0.5-0.1c-0.1,0-0.4,0.2-0.5,0.2
			L5.6,9.5c0,0-0.3,0.1-0.4,0.1L5.1,9.4H3.2V10H1.6v0.5c0,0.1-0.8,0.4-0.9,0.4c0,0.2,0,0.2,0.2,0.3c0.1,0.1,0.8-0.4,0.9-0.5h0.2
			c-0.1,0.1-0.2,0.1-0.2,0.1c0,0.1,0,0.2-0.1,0.3c0,0-0.3,0.1-0.3,0.2c-0.1,0.2,0,0.5,0,0.7c0,0.2-0.1,0.5-0.1,0.7h0.3
			c0,0.7,0.1,1.2-0.4,1.5v0.1h0.3v0.7c0,0.1,0.2,0,0.1,0.1H1.7v0.6h0.4V15H2c0-0.2,0.1-0.1,0.1-0.1v-0.7c0.3,0,0.5,0,0.8-0.1
			c0,1.5,1.9,2.9,2,3c0.5,0.3,1.6,1.3,1.8,1.4c0.1,0.1,0.7,0.3,0.8,0.4c0.7,0,1.4,0,2.1,0.1h24.3c0.8,0,1.5,0,2.1-0.2
			c0.1,0,0.4-0.2,0.4-0.2c0.8-0.6,4-2.6,4-5.1c0.3,0,0.8-0.1,1-0.2c0.1-0.1,0,0,0.1-0.1c-0.1-0.1-0.1-0.3-0.2-0.5
			c-0.4-0.6-1-1.1-1.8-1.2c0-0.1,0-0.2-0.1-0.2l-0.1-0.2H39c0,0.1,0.1,0.2,0.1,0.3v0.1c-0.1,0-0.1,0-0.2-0.1c-0.1-0.1,0-0.1-0.1-0.2
			c-0.2,0-0.4,0.2-0.5,0.1h-1c0.1-0.1,0-0.1,0.1-0.1v-0.2c-0.1-0.1-0.2,0-0.4-0.1L37,10.5c-0.1,0-0.2,0-0.2-0.1c0,0-0.1-0.2-0.2-0.2
			h-0.2c-0.1-0.1-0.1-0.2-0.2-0.3c-0.4,0-0.3,0.2-0.4,0.2c-0.2,0-0.4-0.2-0.7-0.1c-0.2,0.1-0.3,0.3-0.5,0.4
			c-0.1,0.1-0.3-0.1-0.4-0.2h-0.3c-0.1,0-0.3-0.2-0.4-0.2c-0.1,0-0.2,0-0.3-0.1V9.9c-0.2,0.1-0.3,0-0.4-0.1c-0.2-0.1-0.6,0-0.7-0.1
			c-0.1-0.1-0.1-0.2-0.1-0.4H32V9.3h-0.5c0,0.1,0,0.2-0.1,0.4c-0.5,0-1,0-1.5-0.1c-0.1-0.1,0,0-0.1-0.1c0-0.3,0.1-0.3,0.2-0.4
			c0.1,0,0.2,0,0.2-0.1h0.1c0,0.2,0.1,0.3,0.1,0.5c0.8-0.2,1.7-0.5,2.4-0.9V8.5c0.3,0,0.5,0.1,0.7-0.1c0.1,0,0.1-0.1,0.2-0.1V8
			C40.9,8,55.4,8,55.4,8v0.2h4.9V8h1l0.1,0.1h2.4V6.8H61.5z M12.1,5.5L12.1,5.5c-0.1,0-0.1,0-0.2-0.1L12.1,5.5L12.1,5.5z M12.2,5.5
			L12.2,5.5l0.1,0.1h-0.1V5.5z M12.9,5.5c-0.2,0.1-0.4,0.2-0.4,0.5h-0.1c0-0.1,0-0.1-0.1-0.1c0-0.2,0.1-0.2,0.1-0.4L12.9,5.5
			L12.9,5.5z M1.6,12.6c0.1,0,0.1,0,0.1,0.1C1.7,12.6,1.7,12.6,1.6,12.6z M2,11.5h0.2c0,0.1,0,0.2,0.1,0.2v0.1H2V11.5z M2.1,13.2
			C2,13.1,2,12.9,2,12.7h0.2C2.2,12.9,2.1,13.1,2.1,13.2z M2.3,12.6H2v-0.2h0.3V12.6z M27.9,4.9h-0.6c0-0.1,0-0.2,0.1-0.2V4.5
			c0.1,0,0.1,0,0.1-0.1c0.3,0,0.3,0,0.4,0.1V4.9z M36.1,10.4c0.4,0.1,0.5,0.4,0.9,0.4c0,0.1,0,0.2,0.1,0.2v0.1h-1.3
			C35.9,10.9,36.1,10.7,36.1,10.4z M35.2,10.4c0.1,0,0.1,0,0.2,0.1c0.1,0,0.1,0,0.2,0.1c0,0.3,0,0.4-0.1,0.5c-0.1,0.1,0,0-0.1,0.1
			c-0.1-0.2-0.2-0.3-0.4-0.3C35,10.5,35.1,10.5,35.2,10.4z M31.5,9.3H32c0.1,0.1,0,0,0.1,0.1v0.3c-0.2-0.1-0.1,0-0.1-0.2
			c-0.2,0-0.3,0.1-0.4,0.2h-0.1C31.5,9.5,31.5,9.4,31.5,9.3z M62.5,7.7h-0.6V7.3l0.7,0.1L62.5,7.7z M63.7,7.7h-0.9V7.2h0.9V7.7z"/>
	</g>
</g>
</svg>
