<?xml version="1.0" encoding="utf-8"?>
<!-- Generator: Adobe Illustrator 21.1.0, SVG Export Plug-In . SVG Version: 6.00 Build 0)  -->
<svg version="1.1" id="Layer_1" xmlns="http://www.w3.org/2000/svg" xmlns:xlink="http://www.w3.org/1999/xlink" x="0px" y="0px"
	 width="125px" height="150px" viewBox="0 0 125 150" enable-background="new 0 0 125 150" xml:space="preserve">
<g>
	<path id="WGMODS_x5F_Logo_x5F_BlackR_x5F_Eng_4_" fill-rule="evenodd" clip-rule="evenodd" fill="#FFFFFF" d="M54,91.8V8.9
		c0-4.3,3.5-7.8,7.9-7.8c0.8,0,1.3,0.1,1.4,0.1L94,6.6c4.3,0.8,7.1,4.8,6.4,9.1c-0.8,4.3-4.8,7.1-9.1,6.4l-21.6-3.8v73.5
		c0,4.3-3.5,7.8-7.9,7.8C57.5,99.6,54,96.1,54,91.8L54,91.8z M65.3,91.8c0-1.9-1.6-3.5-3.5-3.5c-1.9,0-3.5,1.6-3.5,3.5
		c0,1.9,1.6,3.5,3.5,3.5C63.8,95.2,65.3,93.7,65.3,91.8L65.3,91.8z M36.9,77.4L25.4,66.1c-3.1-3.1-3.1-8,0-11.1c2.1-2.1,5-2.7,7.7-2
		c-2.9-1.1-6.3-0.5-8.6,1.8c-0.6,0.6-1,1.2-1.4,1.8V36.6c0-4.3,3.5-7.8,7.9-7.8c4.3,0,7.9,3.5,7.9,7.8v20.7l9.1,9.1
		c3.1,3.1,3.1,8,0,11.1C44.9,80.5,39.9,80.5,36.9,77.4L36.9,77.4z M75.7,77.4c-3.1-3.1-3.1-8,0-11.1l8.1-8.1v2.3
		c0,4.5,3.6,8.1,8.1,8.1c1,0,2-0.2,2.9-0.5c-0.7,0.2-1.4,0.3-2.1,0.3c-4.3,0-7.9-3.5-7.9-7.8v-24c0-4.3,3.5-7.8,7.9-7.8
		c4.3,0,7.9,3.5,7.9,7.8v24c0,2.2-0.9,4.1-2.3,5.5c0,0,0,0,0,0L86.8,77.4C83.8,80.5,78.8,80.5,75.7,77.4L75.7,77.4z M45.9,71.9
		c0-1.9-1.6-3.5-3.5-3.5c-1.9,0-3.5,1.6-3.5,3.5c0,1.9,1.6,3.5,3.5,3.5C44.3,75.4,45.9,73.8,45.9,71.9L45.9,71.9z M84.8,71.9
		c0-1.9-1.6-3.5-3.5-3.5c-1.9,0-3.5,1.6-3.5,3.5c0,1.9,1.6,3.5,3.5,3.5C83.2,75.4,84.8,73.8,84.8,71.9L84.8,71.9z M65.3,64.2
		c0-1.9-1.6-3.5-3.5-3.5c-1.9,0-3.5,1.6-3.5,3.5c0,1.9,1.6,3.5,3.5,3.5C63.8,67.6,65.3,66.1,65.3,64.2L65.3,64.2z M96.2,60.5
		c0-1.9-1.6-3.5-3.5-3.5c-1.9,0-3.5,1.6-3.5,3.5c0,1.9,1.6,3.5,3.5,3.5C94.6,64,96.2,62.4,96.2,60.5L96.2,60.5z M34.5,60.5
		c0-1.9-1.6-3.5-3.5-3.5c-1.9,0-3.5,1.6-3.5,3.5c0,1.9,1.6,3.5,3.5,3.5C32.9,64,34.5,62.4,34.5,60.5L34.5,60.5z M34.5,36.6
		c0-1.9-1.6-3.5-3.5-3.5c-1.9,0-3.5,1.6-3.5,3.5c0,1.9,1.6,3.5,3.5,3.5C32.9,40,34.5,38.5,34.5,36.6L34.5,36.6z M96.2,36.6
		c0-1.9-1.6-3.5-3.5-3.5c-1.9,0-3.5,1.6-3.5,3.5c0,1.9,1.6,3.5,3.5,3.5C94.6,40,96.2,38.5,96.2,36.6L96.2,36.6z M65.3,36.6
		c0-1.9-1.6-3.5-3.5-3.5c-1.9,0-3.5,1.6-3.5,3.5c0,1.9,1.6,3.5,3.5,3.5C63.8,40,65.3,38.5,65.3,36.6L65.3,36.6z M23.3,15.7
		c-0.7-4.3,2.1-8.3,6.4-9.1l27.1-4.8C54.6,3.2,53,5.8,53,8.7v0.2c0,0,0,0,0,0v9.5l-20.6,3.6C28.1,22.8,24,20,23.3,15.7L23.3,15.7z
		 M31.6,17.8c1.9-0.3,3.2-2.1,2.8-4c-0.3-1.9-2.1-3.2-4-2.8c-1.9,0.3-3.2,2.1-2.8,4C27.9,16.9,29.7,18.1,31.6,17.8L31.6,17.8z
		 M96.1,15c0.3-1.9-0.9-3.7-2.8-4c-1.9-0.3-3.7,0.9-4,2.8c-0.3,1.9,0.9,3.7,2.8,4C94,18.1,95.8,16.9,96.1,15L96.1,15z M62.4,12.4
		c1.9-0.3,3.2-2.1,2.8-4c-0.3-1.9-2.1-3.1-4-2.8c-1.9,0.3-3.2,2.1-2.8,4C58.7,11.4,60.6,12.7,62.4,12.4L62.4,12.4z"/>
	<g>
		<g>
			<path fill="#FFFFFF" d="M16.2,125.4l-1.9,3.6l-1.7,3H9.3l-1.7-3.1l-1.8-3.4H5.7v9.2H1.1v-19.8h4.2l3.3,6.4l2.3,4.7h0.2l2.4-4.9
				l3.1-6.2h4.2v19.8h-4.6L16.2,125.4L16.2,125.4z"/>
			<path fill="#FFFFFF" d="M39.6,128.4c0,1.1-0.2,2-0.6,2.8s-1,1.5-1.7,2c-0.7,0.5-1.5,0.9-2.5,1.2c-0.9,0.3-1.9,0.4-2.9,0.4
				c-1,0-2-0.1-2.9-0.4c-0.9-0.3-1.7-0.7-2.5-1.2c-0.7-0.5-1.3-1.2-1.7-2c-0.4-0.8-0.6-1.7-0.6-2.8V121c0-1.1,0.2-2,0.7-2.8
				c0.5-0.8,1.1-1.4,1.8-1.9c0.7-0.5,1.6-0.9,2.5-1.1c0.9-0.2,1.8-0.4,2.8-0.4c0.9,0,1.9,0.1,2.8,0.4c0.9,0.3,1.8,0.7,2.5,1.2
				c0.7,0.5,1.3,1.2,1.8,2c0.4,0.8,0.7,1.7,0.7,2.8V128.4z M35,122c0-0.6-0.1-1.1-0.3-1.4c-0.2-0.4-0.4-0.7-0.7-0.9
				c-0.3-0.2-0.6-0.4-1-0.5c-0.4-0.1-0.8-0.2-1.1-0.2c-0.4,0-0.8,0.1-1.1,0.2c-0.4,0.1-0.7,0.3-1,0.5c-0.3,0.2-0.6,0.6-0.7,0.9
				c-0.2,0.4-0.3,0.9-0.3,1.4v5.6c0,0.6,0.1,1.1,0.3,1.4c0.2,0.4,0.4,0.7,0.7,0.9c0.3,0.2,0.6,0.4,1,0.5c0.4,0.1,0.7,0.2,1.1,0.2
				c0.4,0,0.7-0.1,1.1-0.2c0.4-0.1,0.7-0.3,1-0.5c0.3-0.2,0.5-0.6,0.7-0.9c0.2-0.4,0.3-0.9,0.3-1.4V122z"/>
			<path fill="#FFFFFF" d="M57.5,128.3c0,1.1-0.2,2-0.6,2.8c-0.4,0.8-1,1.4-1.6,2c-0.7,0.5-1.4,0.9-2.3,1.1
				c-0.9,0.2-1.7,0.4-2.6,0.4h-7.5v-19.8h7.5c1,0,2,0.1,2.8,0.4s1.6,0.6,2.3,1.1c0.6,0.5,1.2,1.2,1.5,1.9c0.4,0.8,0.5,1.7,0.5,2.8
				V128.3z M53,122c0-0.6-0.1-1.1-0.3-1.4c-0.2-0.4-0.4-0.7-0.7-0.9c-0.3-0.2-0.6-0.4-1-0.5c-0.4-0.1-0.8-0.2-1.1-0.2h-2.4v11.7h2.4
				c0.4,0,0.7-0.1,1.1-0.2c0.4-0.1,0.7-0.3,1-0.5c0.3-0.2,0.5-0.6,0.7-1c0.2-0.4,0.3-0.9,0.3-1.5V122z"/>
			<path fill="#FFFFFF" d="M81.5,134.7v-8h-6.3v8h-4.6v-19.8h4.6v7.7h6.3v-7.7h4.6v19.8H81.5z"/>
			<path fill="#FFFFFF" d="M104.4,131.2c-0.4,0.8-1,1.5-1.7,2c-0.7,0.5-1.6,1-2.5,1.2c-0.9,0.3-1.9,0.4-2.8,0.4
				c-1,0-1.9-0.1-2.8-0.4c-0.9-0.3-1.8-0.7-2.5-1.2c-0.7-0.5-1.3-1.2-1.7-2c-0.4-0.8-0.7-1.7-0.7-2.8v-13.6h4.6v12.7
				c0,0.6,0.1,1.1,0.3,1.4c0.2,0.4,0.4,0.7,0.7,0.9c0.3,0.2,0.6,0.4,1,0.5c0.4,0.1,0.8,0.2,1.1,0.2c0.4,0,0.7-0.1,1.1-0.2
				c0.4-0.1,0.7-0.3,1-0.5c0.3-0.2,0.5-0.6,0.7-0.9c0.2-0.4,0.3-0.9,0.3-1.4v-12.7h4.6v13.5C105,129.5,104.8,130.4,104.4,131.2z"/>
			<path fill="#FFFFFF" d="M123.9,128.7c0,0.8-0.1,1.6-0.4,2.3c-0.2,0.7-0.6,1.3-1.1,1.9c-0.5,0.5-1.1,1-1.8,1.2
				c-0.7,0.3-1.5,0.4-2.5,0.4h-9.6v-19.8h9.2c1,0,1.9,0.1,2.6,0.4c0.7,0.3,1.3,0.7,1.8,1.2c0.5,0.5,0.8,1.1,1,1.7
				c0.2,0.7,0.3,1.3,0.3,2.1c0,0.3-0.1,0.7-0.2,1.1c-0.1,0.4-0.3,0.8-0.5,1.1c-0.2,0.4-0.5,0.7-0.8,1c-0.3,0.3-0.7,0.6-1.1,0.7
				c0.5,0.2,0.9,0.5,1.2,0.9s0.6,0.7,0.9,1.1c0.2,0.4,0.4,0.8,0.5,1.3C123.8,128,123.9,128.4,123.9,128.7z M118.8,120.8
				c0-0.6-0.2-1-0.5-1.4c-0.3-0.4-0.9-0.5-1.8-0.5h-3.4v3.6h3.4c0.8,0,1.4-0.2,1.7-0.5S118.8,121.3,118.8,120.8z M119,128.6
				c0-0.6-0.2-1.1-0.5-1.5c-0.4-0.4-0.9-0.6-1.7-0.6h-3.6v4.2h3.6c0.7,0,1.3-0.2,1.7-0.6C118.8,129.7,119,129.2,119,128.6z"/>
		</g>
		<g>
			<path fill="#FFFFFF" d="M7.9,141.3l-0.8,3l-1,4H3.8l-2.7-10.6h2.2l0.9,4.2l0.7,3.3h0.1l0.8-3.3l1-4.1h2l1.1,4.4l0.8,3.1h0.1
				l0.7-3.1l1-4.3h2.2L12,148.3H9.7l-1-4l-0.8-3H7.9z"/>
			<path fill="#FFFFFF" d="M23.6,144.9c0,0.6-0.1,1.1-0.3,1.5c-0.2,0.4-0.5,0.8-0.9,1.1c-0.4,0.3-0.8,0.5-1.3,0.7
				c-0.5,0.1-1,0.2-1.6,0.2c-0.6,0-1.1-0.1-1.6-0.2c-0.5-0.1-0.9-0.4-1.3-0.7c-0.4-0.3-0.7-0.7-0.9-1.1s-0.3-0.9-0.3-1.5v-3.9
				c0-0.6,0.1-1.1,0.3-1.5s0.5-0.8,0.9-1.1c0.4-0.3,0.8-0.5,1.3-0.6c0.5-0.1,1-0.2,1.5-0.2s1,0.1,1.5,0.2c0.5,0.2,0.9,0.4,1.3,0.7
				c0.4,0.3,0.7,0.7,0.9,1.1s0.3,0.9,0.3,1.5V144.9z M21.5,141.5c0-0.3-0.1-0.6-0.2-0.9c-0.1-0.2-0.3-0.4-0.4-0.6
				c-0.2-0.2-0.4-0.3-0.6-0.3c-0.2-0.1-0.5-0.1-0.7-0.1c-0.2,0-0.5,0-0.7,0.1c-0.2,0.1-0.4,0.2-0.6,0.3c-0.2,0.2-0.3,0.4-0.4,0.6
				c-0.1,0.2-0.2,0.5-0.2,0.9v3.1c0,0.3,0.1,0.6,0.2,0.9c0.1,0.2,0.3,0.4,0.4,0.6c0.2,0.2,0.4,0.3,0.6,0.3c0.2,0.1,0.5,0.1,0.7,0.1
				c0.2,0,0.5,0,0.7-0.1c0.2-0.1,0.4-0.2,0.6-0.3c0.2-0.2,0.3-0.4,0.4-0.6c0.1-0.2,0.2-0.5,0.2-0.9V141.5z"/>
			<path fill="#FFFFFF" d="M30,137.7c0.5,0,1,0.1,1.4,0.3c0.4,0.2,0.7,0.5,1,0.8s0.4,0.7,0.6,1.1c0.1,0.4,0.2,0.8,0.2,1.2
				c0,0.3,0,0.6-0.1,0.9c-0.1,0.3-0.2,0.6-0.3,0.8s-0.3,0.5-0.5,0.7c-0.2,0.2-0.5,0.4-0.7,0.5l1.9,4.3H31c0-0.1-0.1-0.3-0.2-0.5
				c-0.1-0.2-0.2-0.4-0.3-0.7c-0.1-0.3-0.2-0.5-0.3-0.8c-0.1-0.3-0.2-0.6-0.3-0.8c-0.1-0.3-0.2-0.5-0.3-0.7
				c-0.1-0.2-0.2-0.4-0.2-0.5h-1.9v4h-2.1v-10.6H30z M27.4,142.5h2.1c0.5,0,0.9-0.1,1.1-0.4c0.2-0.3,0.4-0.6,0.4-1
				c0-0.4-0.1-0.8-0.4-1c-0.3-0.3-0.6-0.4-1.1-0.4h-2.1V142.5z"/>
			<path fill="#FFFFFF" d="M34.5,148.3v-10.6h2.1v8.7h5.2v1.9H34.5z"/>
			<path fill="#FFFFFF" d="M50.6,144.9c0,0.6-0.1,1-0.3,1.5c-0.2,0.4-0.5,0.8-0.8,1.1c-0.4,0.3-0.8,0.5-1.2,0.6
				c-0.5,0.1-0.9,0.2-1.4,0.2h-4v-10.6h4c0.5,0,0.9,0.1,1.4,0.2c0.5,0.1,0.9,0.4,1.2,0.6c0.3,0.3,0.6,0.6,0.8,1.1
				c0.2,0.4,0.3,0.9,0.3,1.5V144.9z M48.5,141.5c0-0.3-0.1-0.6-0.2-0.9c-0.1-0.2-0.3-0.4-0.5-0.6c-0.2-0.2-0.4-0.3-0.6-0.3
				c-0.2-0.1-0.5-0.1-0.7-0.1h-1.6v6.8h1.6c0.2,0,0.5,0,0.7-0.1c0.2-0.1,0.4-0.2,0.6-0.3c0.2-0.2,0.3-0.3,0.5-0.6
				c0.1-0.2,0.2-0.5,0.2-0.9V141.5z"/>
			<path fill="#FFFFFF" d="M64.7,144.9c0,0.6-0.1,1.1-0.3,1.5c-0.2,0.4-0.5,0.8-0.9,1.1c-0.4,0.3-0.8,0.5-1.3,0.7
				c-0.5,0.1-1,0.2-1.6,0.2c-0.6,0-1.1-0.1-1.6-0.2c-0.5-0.1-0.9-0.4-1.3-0.7c-0.4-0.3-0.7-0.7-0.9-1.1c-0.2-0.4-0.3-0.9-0.3-1.5
				v-3.9c0-0.6,0.1-1.1,0.3-1.5s0.5-0.8,0.9-1.1c0.4-0.3,0.8-0.5,1.3-0.6c0.5-0.1,1-0.2,1.5-0.2s1,0.1,1.5,0.2
				c0.5,0.2,0.9,0.4,1.3,0.7c0.4,0.3,0.7,0.7,0.9,1.1c0.2,0.4,0.3,0.9,0.3,1.5V144.9z M62.6,141.5c0-0.3-0.1-0.6-0.2-0.9
				c-0.1-0.2-0.3-0.4-0.4-0.6c-0.2-0.2-0.4-0.3-0.6-0.3c-0.2-0.1-0.5-0.1-0.7-0.1c-0.2,0-0.5,0-0.7,0.1c-0.2,0.1-0.4,0.2-0.6,0.3
				c-0.2,0.2-0.3,0.4-0.4,0.6c-0.1,0.2-0.2,0.5-0.2,0.9v3.1c0,0.3,0.1,0.6,0.2,0.9c0.1,0.2,0.3,0.4,0.4,0.6c0.2,0.2,0.4,0.3,0.6,0.3
				c0.2,0.1,0.5,0.1,0.7,0.1c0.2,0,0.5,0,0.7-0.1c0.2-0.1,0.4-0.2,0.6-0.3c0.2-0.2,0.3-0.4,0.4-0.6c0.1-0.2,0.2-0.5,0.2-0.9V141.5z"
				/>
			<path fill="#FFFFFF" d="M68.5,142.1H73v1.9h-4.4v4.3h-2.1v-10.6h7.3v1.9h-5.2V142.1z"/>
			<path fill="#FFFFFF" d="M83.3,139.6v8.7h-2.1v-8.7h-2.8v-1.9h7.7v1.9H83.3z"/>
			<path fill="#FFFFFF" d="M92.1,146.1h-3.7l-0.7,2.2h-2.2l3.7-10.6h2.1l3.7,10.6h-2.3L92.1,146.1z M89,144.4h2.5l-0.4-1.4l-0.8-2.8
				h-0.1l-0.8,2.7L89,144.4z"/>
			<path fill="#FFFFFF" d="M98.2,141.7v6.7h-2.1v-10.6H98l2.5,3.6l2,3.1h0.1v-6.7h2.1v10.6h-1.9l-2.7-4L98.2,141.7L98.2,141.7z"/>
			<path fill="#FFFFFF" d="M108.6,142.3c0.3-0.3,0.6-0.7,0.9-1c0.3-0.3,0.6-0.7,0.8-1l2.1-2.5h2.5l-3.5,4.3l3.8,6.3h-2.5l-2.7-4.7
				c-0.2,0.3-0.5,0.6-0.7,0.9c-0.2,0.3-0.5,0.6-0.7,0.9v2.9h-2.1v-10.6h2.1L108.6,142.3L108.6,142.3z"/>
			<path fill="#FFFFFF" d="M123.9,145.3c0,0.5-0.1,1-0.3,1.4c-0.2,0.4-0.5,0.7-0.9,1c-0.4,0.3-0.8,0.5-1.3,0.6
				c-0.5,0.1-1,0.2-1.6,0.2c-0.8,0-1.5-0.1-2.2-0.3c-0.7-0.2-1.3-0.6-2-1.1l1.2-1.5c0.5,0.4,0.9,0.6,1.4,0.8c0.5,0.2,1,0.3,1.5,0.3
				c0.3,0,0.6,0,0.9-0.1c0.2-0.1,0.4-0.2,0.6-0.3c0.1-0.1,0.2-0.3,0.3-0.4c0.1-0.1,0.1-0.3,0.1-0.5c0-0.2-0.1-0.4-0.2-0.6
				c-0.1-0.2-0.3-0.3-0.5-0.4c-0.2-0.1-0.5-0.2-0.8-0.3c-0.3-0.1-0.6-0.2-1-0.3c-0.4-0.1-0.8-0.2-1.2-0.4c-0.4-0.1-0.7-0.3-1-0.6
				c-0.3-0.2-0.5-0.5-0.7-0.8c-0.2-0.3-0.3-0.7-0.3-1.2c0-0.5,0.1-0.9,0.3-1.3c0.2-0.4,0.4-0.7,0.7-1c0.3-0.3,0.7-0.5,1.1-0.7
				c0.4-0.2,0.9-0.2,1.5-0.2c0.6,0,1.3,0.1,1.9,0.2c0.6,0.1,1.3,0.4,1.9,0.8l-0.9,1.7c-0.5-0.3-1-0.5-1.4-0.6
				c-0.4-0.1-0.9-0.2-1.3-0.2c-0.2,0-0.4,0-0.6,0.1c-0.2,0.1-0.4,0.1-0.5,0.2c-0.2,0.1-0.3,0.2-0.4,0.4s-0.1,0.3-0.1,0.6
				c0,0.2,0.1,0.4,0.2,0.5c0.1,0.1,0.3,0.3,0.5,0.4c0.2,0.1,0.5,0.2,0.7,0.3c0.3,0.1,0.6,0.2,1,0.2c1.1,0.2,2,0.6,2.5,1.1
				C123.6,143.8,123.9,144.4,123.9,145.3z"/>
		</g>
	</g>
</g>
</svg>
